<svg xmlns="http://www.w3.org/2000/svg" xmlns:xlink="http://www.w3.org/1999/xlink"><symbol id="android" viewBox="0 0 24 24"><path d="M0 0h24v24H0z" fill="none"/><path d="M6 18c0 .55.45 1 1 1h1v3.5c0 .83.67 1.5 1.5 1.5s1.5-.67 1.5-1.5V19h2v3.5c0 .83.67 1.5 1.5 1.5s1.5-.67 1.5-1.5V19h1c.55 0 1-.45 1-1V8H6v10zM3.5 8C2.67 8 2 8.67 2 9.5v7c0 .83.67 1.5 1.5 1.5S5 17.33 5 16.5v-7C5 8.67 4.33 8 3.5 8zm17 0c-.83 0-1.5.67-1.5 1.5v7c0 .83.67 1.5 1.5 1.5s1.5-.67 1.5-1.5v-7c0-.83-.67-1.5-1.5-1.5zm-4.97-5.84l1.3-1.3c.2-.2.2-.51 0-.71-.2-.2-.51-.2-.71 0l-1.48 1.48C13.85 1.23 12.95 1 12 1c-.96 0-1.86.23-2.66.63L7.85.15c-.2-.2-.51-.2-.71 0-.2.2-.2.51 0 .71l1.31 1.31C6.97 3.26 6 5.01 6 7h12c0-1.99-.97-3.75-2.47-4.84zM10 5H9V4h1v1zm5 0h-1V4h1v1z"/></symbol><symbol id="apple" viewBox="0 0 305 305">
<g id="XMLID_228_">
	<path id="XMLID_229_" d="M40.738,112.119c-25.785,44.745-9.393,112.648,19.121,153.82C74.092,286.523,88.502,305,108.239,305
		c0.372,0,0.745-0.007,1.127-0.022c9.273-0.37,15.974-3.225,22.453-5.984c7.274-3.1,14.797-6.305,26.597-6.305
		c11.226,0,18.39,3.101,25.318,6.099c6.828,2.954,13.861,6.01,24.253,5.815c22.232-0.414,35.882-20.352,47.925-37.941
		c12.567-18.365,18.871-36.196,20.998-43.01l0.086-0.271c0.405-1.211-0.167-2.533-1.328-3.066c-0.032-0.015-0.15-0.064-0.183-0.078
		c-3.915-1.601-38.257-16.836-38.618-58.36c-0.335-33.736,25.763-51.601,30.997-54.839l0.244-0.152
		c0.567-0.365,0.962-0.944,1.096-1.606c0.134-0.661-0.006-1.349-0.386-1.905c-18.014-26.362-45.624-30.335-56.74-30.813
		c-1.613-0.161-3.278-0.242-4.95-0.242c-13.056,0-25.563,4.931-35.611,8.893c-6.936,2.735-12.927,5.097-17.059,5.097
		c-4.643,0-10.668-2.391-17.645-5.159c-9.33-3.703-19.905-7.899-31.1-7.899c-0.267,0-0.53,0.003-0.789,0.008
		C78.894,73.643,54.298,88.535,40.738,112.119z"/>
	<path id="XMLID_230_" d="M212.101,0.002c-15.763,0.642-34.672,10.345-45.974,23.583c-9.605,11.127-18.988,29.679-16.516,48.379
		c0.155,1.17,1.107,2.073,2.284,2.164c1.064,0.083,2.15,0.125,3.232,0.126c15.413,0,32.04-8.527,43.395-22.257
		c11.951-14.498,17.994-33.104,16.166-49.77C214.544,0.921,213.395-0.049,212.101,0.002z"/>
</g>
<g>
</g>
<g>
</g>
<g>
</g>
<g>
</g>
<g>
</g>
<g>
</g>
<g>
</g>
<g>
</g>
<g>
</g>
<g>
</g>
<g>
</g>
<g>
</g>
<g>
</g>
<g>
</g>
<g>
</g>
</symbol><symbol id="arrow_right" viewBox="0 0 24 24"><path d="M8.59 16.59L13.17 12 8.59 7.41 10 6l6 6-6 6-1.41-1.41z"/><path fill="none" d="M0 0h24v24H0V0z"/></symbol><symbol id="cloud-download" viewBox="0 0 512 512">
<g>
	<path d="M442.55,203.072c4.172-11.615,6.45-24.132,6.45-37.184c0-60.751-49.248-110-110-110c-34.805,0-65.829,16.169-85.985,41.4
		c-12.395-6.021-26.31-9.4-41.015-9.4c-51.915,0-94,42.085-94,94c0,0.28,0.008,0.559,0.011,0.839
		C68.92,189.095,31,231.062,31,281.888c0,55.229,44.771,100,100,100h63.646l-60.209-73.732h89.538v-93.102h88.667v93.102
		l88.729,0.002l-60.207,73.73H381c55.229,0,100-44.771,100-100C481,249.873,465.954,221.375,442.55,203.072z"/>
	<polygon points="302.885,317.047 302.885,224.085 232.923,224.085 232.923,317.047 154.35,317.047 211.128,386.578 
		267.904,456.111 324.68,386.578 381.456,317.049 	"/>
</g>
</symbol><symbol id="css3" viewBox="0 0 24 24"><title>CSS3 icon</title><path d="M1.5 0h21l-1.91 21.563L11.977 24l-8.565-2.438L1.5 0zm17.09 4.413L5.41 4.41l.213 2.622 10.125.002-.255 2.716h-6.64l.24 2.573h6.182l-.366 3.523-2.91.804-2.956-.81-.188-2.11h-2.61l.29 3.855L12 19.288l5.373-1.53L18.59 4.414z"/></symbol><symbol id="facebook_black" viewBox="0 0 24 24"><title>Facebook icon</title><path d="M23.9981 11.9991C23.9981 5.37216 18.626 0 11.9991 0C5.37216 0 0 5.37216 0 11.9991C0 17.9882 4.38789 22.9522 10.1242 23.8524V15.4676H7.07758V11.9991H10.1242V9.35553C10.1242 6.34826 11.9156 4.68714 14.6564 4.68714C15.9692 4.68714 17.3424 4.92149 17.3424 4.92149V7.87439H15.8294C14.3388 7.87439 13.8739 8.79933 13.8739 9.74824V11.9991H17.2018L16.6698 15.4676H13.8739V23.8524C19.6103 22.9522 23.9981 17.9882 23.9981 11.9991Z"/></symbol><symbol id="git" viewBox="0 0 24 24"><title>Git icon</title><path d="M23.546 10.93L13.067.452c-.604-.603-1.582-.603-2.188 0L8.708 2.627l2.76 2.76c.645-.215 1.379-.07 1.889.441.516.515.658 1.258.438 1.9l2.658 2.66c.645-.223 1.387-.078 1.9.435.721.72.721 1.884 0 2.604-.719.719-1.881.719-2.6 0-.539-.541-.674-1.337-.404-1.996L12.86 8.955v6.525c.176.086.342.203.488.348.713.721.713 1.883 0 2.6-.719.721-1.889.721-2.609 0-.719-.719-.719-1.879 0-2.598.182-.18.387-.316.605-.406V8.835c-.217-.091-.424-.222-.6-.401-.545-.545-.676-1.342-.396-2.009L7.636 3.7.45 10.881c-.6.605-.6 1.584 0 2.189l10.48 10.477c.604.604 1.582.604 2.186 0l10.43-10.43c.605-.603.605-1.582 0-2.187"/></symbol><symbol id="github" viewBox="0 0 24 24"><title>GitHub icon</title><path d="M12 .297c-6.63 0-12 5.373-12 12 0 5.303 3.438 9.8 8.205 11.385.6.113.82-.258.82-.577 0-.285-.01-1.04-.015-2.04-3.338.724-4.042-1.61-4.042-1.61C4.422 18.07 3.633 17.7 3.633 17.7c-1.087-.744.084-.729.084-.729 1.205.084 1.838 1.236 1.838 1.236 1.07 1.835 2.809 1.305 3.495.998.108-.776.417-1.305.76-1.605-2.665-.3-5.466-1.332-5.466-5.93 0-1.31.465-2.38 1.235-3.22-.135-.303-.54-1.523.105-3.176 0 0 1.005-.322 3.3 1.23.96-.267 1.98-.399 3-.405 1.02.006 2.04.138 3 .405 2.28-1.552 3.285-1.23 3.285-1.23.645 1.653.24 2.873.12 3.176.765.84 1.23 1.91 1.23 3.22 0 4.61-2.805 5.625-5.475 5.92.42.36.81 1.096.81 2.22 0 1.606-.015 2.896-.015 3.286 0 .315.21.69.825.57C20.565 22.092 24 17.592 24 12.297c0-6.627-5.373-12-12-12"/></symbol><symbol id="gulp" viewBox="0 0 256 566" preserveAspectRatio="xMinYMin meet"><path d="M197.28 548.749l5.427-90.43 14.985-25.58s-34.106 13.952-91.205 13.952c-57.1 0-90.689-13.694-90.689-13.694l16.794 27.904 5.941 87.848c0 9.418 31.059 17.052 69.374 17.052 38.313 0 69.373-7.634 69.373-17.052M180.161 126.454l11.391-45.025 63.081-66.376L238.007.892l-66.784 70.707-13.226 53.793a886.14 886.14 0 0 0-29.873-.497c-70.336 0-127.355 8.016-127.355 17.902 0 9.887 57.019 17.902 127.355 17.902 70.335 0 127.353-8.015 127.353-17.902 0-7.28-30.924-13.546-75.316-16.343" fill="#D34A47"/><path d="M173.535 151.669s-2.467.553-9.724.584c-7.259.03-12.413-.047-14.466-1.917-.552-.502-.854-1.499-.851-2.174.006-1.285.918-2.042 2.08-2.516l1.099 1.724c-.478.165-.751.36-.752.568-.004.976 7.422 1.644 13.102 1.572 5.681-.07 12.545-.538 12.551-1.5 0-.291-.519-.565-1.422-.781l1.094-1.712c1.472.457 2.757 1.34 2.754 2.868-.014 2.598-3.32 2.993-5.465 3.284" fill="#FFF"/><path d="M254.509 15.184c1.586-1.832-.821-6.518-5.376-10.465C244.576.774 239.596-.94 238.007.892c-1.587 1.832.821 6.518 5.378 10.463 4.555 3.946 9.537 5.662 11.124 3.829M194.246 327.865c-1.495-14.384 31.462-35.216 23.004-35.883-18.208 1.041-27.27 21.338-36.431 42.596-3.357 7.791-14.844 41.013-22.378 36.923-7.532-4.088 9.765-31.407 14.613-47.631-5.594 4.102-26.109 20.041-31.396 5.114-8.5 7.219-26.663 11.13-24.614-7.833-4.522 8.01-14.671 19.193-26.853 14.546-15.998-6.101 9.27-57.062 15.553-54.491 6.284 2.57-1.268 14.179-3.246 18.687-4.35 9.921-9.375 22.393-6.018 24.946 5.751 4.374 21.401-16.547 21.749-17.007 2.927-3.867 11.266-29.166 17.987-26.261 6.721 2.905-16.764 36.308-7.983 42.937 1.771 1.338 9.017-.825 13.425-5.594 2.852-3.085 1.871-9.918 11.378-32.59 9.507-22.671 17.98-50.905 24.5-48.754 6.52 2.15 1.146 16.641-1.193 22.043-10.976 25.354-29.956 67.241-21.005 64.07 8.951-3.17 13.612-3.356 22.377-13.613 8.765-10.257 8.361-27.152 14.203-26.793 5.844.36 4.863 5.777 3.446 9.902 5.75-6.58 27.256-20.438 32.448-6.713 6.15 16.249-30.769 39.72-21.564 38.523 8.975-1.167 23.515-10.376 29.723-18.749l17.088-153.626s-17.195 14.23-126.589 14.23c-109.395 0-124.811-13.934-124.811-13.934l14.548 140.224c7.722-21.947 26.059-66.339 54.963-64.849 13.148.678 30.7 25.995 15.665 26.853-6.364.362-7.01-12.637-14.546-14.546-5.438-1.378-13.009 3.043-17.902 7.833-9.758 9.55-30.745 47.229-27.972 66.014 3.533 23.949 33.048-8.322 38.042-17.903 3.517-6.749 5.893-26.745 13.585-24.647 7.693 2.098-.671 22.734-6.247 40.979-6.264 20.487-9.557 42.098-17.408 39.612-7.852-2.484 4.938-28.932 4.475-33.566-7.38 6.809-20.976 24.047-38.37 15.515l9.035 87.078s24.013 18.973 96.35 18.973c72.337 0 97.239-18.677 97.239-18.677l11.219-100.857c-9.179 8.938-38.229 24.81-40.089 6.919" fill="#D34A47"/>
	<metadata>
		<rdf:RDF xmlns:rdf="http://www.w3.org/1999/02/22-rdf-syntax-ns#" xmlns:rdfs="http://www.w3.org/2000/01/rdf-schema#" xmlns:dc="http://purl.org/dc/elements/1.1/">
			<rdf:Description about="https://iconscout.com/legal#licenses" dc:title="gulp" dc:description="gulp" dc:publisher="Iconscout" dc:date="2017-06-17" dc:format="image/svg+xml" dc:language="en">
				<dc:creator>
					<rdf:Bag>
						<rdf:li>Icon Mafia</rdf:li>
					</rdf:Bag>
				</dc:creator>
			</rdf:Description>
		</rdf:RDF>
    </metadata></symbol><symbol id="html5" viewBox="0 0 24 24"><title>HTML5 icon</title><path d="M1.5 0h21l-1.91 21.563L11.977 24l-8.564-2.438L1.5 0zm7.031 9.75l-.232-2.718 10.059.003.23-2.622L5.412 4.41l.698 8.01h9.126l-.326 3.426-2.91.804-2.955-.81-.188-2.11H6.248l.33 4.171L12 19.351l5.379-1.443.744-8.157H8.531z"/></symbol><symbol id="sass" viewBox="0 0 24 24"><title>Sass icon</title><path d="M12 0c6.627 0 12 5.373 12 12s-5.373 12-12 12S0 18.627 0 12 5.373 0 12 0zM9.615 15.998c.175.645.156 1.248-.024 1.792l-.065.18c-.024.061-.052.12-.078.176-.14.29-.326.56-.555.81-.698.759-1.672 1.047-2.09.805-.45-.262-.226-1.335.584-2.19.871-.918 2.12-1.509 2.12-1.509v-.003l.108-.061zm9.911-10.861c-.542-2.133-4.077-2.834-7.422-1.645-1.989.707-4.144 1.818-5.693 3.267C4.568 8.48 4.275 9.98 4.396 10.607c.427 2.211 3.457 3.657 4.703 4.73v.006c-.367.18-3.056 1.529-3.686 2.925-.675 1.47.105 2.521.615 2.655 1.575.436 3.195-.36 4.065-1.649.84-1.261.766-2.881.404-3.676.496-.135 1.08-.195 1.83-.104 2.101.24 2.521 1.56 2.43 2.1-.09.539-.523.854-.674.944-.15.091-.195.12-.181.181.015.09.091.09.21.075.165-.03 1.096-.45 1.141-1.471.045-1.29-1.186-2.729-3.375-2.7-.9.016-1.471.091-1.875.256-.03-.045-.061-.075-.105-.105-1.35-1.455-3.855-2.475-3.75-4.41.03-.705.285-2.564 4.8-4.814 3.705-1.846 6.661-1.335 7.171-.21.733 1.604-1.576 4.59-5.431 5.024-1.47.165-2.235-.404-2.431-.615-.209-.225-.239-.24-.314-.194-.12.06-.045.255 0 .375.12.3.585.825 1.396 1.095.704.225 2.43.359 4.5-.45 2.324-.899 4.139-3.405 3.614-5.505l.073.067z"/></symbol><symbol id="skype_black" viewBox="0 0 24 24"><title>Skype icon</title><path d="M12.069 18.874c-4.023 0-5.82-1.979-5.82-3.464 0-.765.561-1.296 1.333-1.296 1.723 0 1.273 2.477 4.487 2.477 1.641 0 2.55-.895 2.55-1.811 0-.551-.269-1.16-1.354-1.429l-3.576-.895c-2.88-.724-3.403-2.286-3.403-3.751 0-3.047 2.861-4.191 5.549-4.191 2.471 0 5.393 1.373 5.393 3.199 0 .784-.688 1.24-1.453 1.24-1.469 0-1.198-2.037-4.164-2.037-1.469 0-2.292.664-2.292 1.617s1.153 1.258 2.157 1.487l2.637.587c2.891.649 3.624 2.346 3.624 3.944 0 2.476-1.902 4.324-5.722 4.324m11.084-4.882l-.029.135-.044-.24c.015.045.044.074.059.12.12-.675.181-1.363.181-2.052 0-1.529-.301-3.012-.898-4.42-.569-1.348-1.395-2.562-2.427-3.596-1.049-1.033-2.247-1.856-3.595-2.426-1.318-.631-2.801-.93-4.328-.93-.72 0-1.444.07-2.143.204l.119.06-.239-.033.119-.025C8.91.274 7.829 0 6.731 0c-1.789 0-3.47.698-4.736 1.967C.729 3.235.032 4.923.032 6.716c0 1.143.292 2.265.844 3.258l.02-.124.041.239-.06-.115c-.114.645-.172 1.299-.172 1.955 0 1.53.3 3.017.884 4.416.568 1.362 1.378 2.576 2.427 3.609 1.034 1.05 2.247 1.857 3.595 2.442 1.394.6 2.877.898 4.404.898.659 0 1.334-.06 1.977-.179l-.119-.062.24.046-.135.03c1.002.569 2.126.871 3.294.871 1.783 0 3.459-.69 4.733-1.963 1.259-1.259 1.962-2.951 1.962-4.749 0-1.138-.299-2.262-.853-3.266"/></symbol><symbol id="slack_black" viewBox="0 0 24 24"><title>Slack icon</title><path d="M5.042 15.165a2.528 2.528 0 0 1-2.52 2.523A2.528 2.528 0 0 1 0 15.165a2.527 2.527 0 0 1 2.522-2.52h2.52v2.52zM6.313 15.165a2.527 2.527 0 0 1 2.521-2.52 2.527 2.527 0 0 1 2.521 2.52v6.313A2.528 2.528 0 0 1 8.834 24a2.528 2.528 0 0 1-2.521-2.522v-6.313zM8.834 5.042a2.528 2.528 0 0 1-2.521-2.52A2.528 2.528 0 0 1 8.834 0a2.528 2.528 0 0 1 2.521 2.522v2.52H8.834zM8.834 6.313a2.528 2.528 0 0 1 2.521 2.521 2.528 2.528 0 0 1-2.521 2.521H2.522A2.528 2.528 0 0 1 0 8.834a2.528 2.528 0 0 1 2.522-2.521h6.312zM18.956 8.834a2.528 2.528 0 0 1 2.522-2.521A2.528 2.528 0 0 1 24 8.834a2.528 2.528 0 0 1-2.522 2.521h-2.522V8.834zM17.688 8.834a2.528 2.528 0 0 1-2.523 2.521 2.527 2.527 0 0 1-2.52-2.521V2.522A2.527 2.527 0 0 1 15.165 0a2.528 2.528 0 0 1 2.523 2.522v6.312zM15.165 18.956a2.528 2.528 0 0 1 2.523 2.522A2.528 2.528 0 0 1 15.165 24a2.527 2.527 0 0 1-2.52-2.522v-2.522h2.52zM15.165 17.688a2.527 2.527 0 0 1-2.52-2.523 2.526 2.526 0 0 1 2.52-2.52h6.313A2.527 2.527 0 0 1 24 15.165a2.528 2.528 0 0 1-2.522 2.523h-6.313z"/></symbol><symbol id="telegram_black" viewBox="0 0 24 24"><title>Telegram icon</title><path d="M23.91 3.79L20.3 20.84c-.25 1.21-.98 1.5-2 .94l-5.5-4.07-2.66 2.57c-.3.3-.55.56-1.1.56-.72 0-.6-.27-.84-.95L6.3 13.7l-5.45-1.7c-1.18-.35-1.19-1.16.26-1.75l21.26-8.2c.97-.43 1.9.24 1.53 1.73z"/></symbol></svg>